Patient4_TMGait_0pt4_03_left_34_GRF.mot
version=1
nRows=52
nColumns=19
inDegrees=no
endheader
time	F1x	F1y	F1z	M1x	M1y	M1z	F2x	F2y	F2z	M2x	M2y	M2z	EC1x	EC1y	EC1z	EC2x	EC2y	EC2z
44.93	-1.1916	-14.1183	6.1616	1.9619	-4.9974	-16.5533	-24.8603	809.4232	-68.9484	309.8713	90.2847	908.0187	-0.0592	0.0182	-0.0073	-0.0462	0.0165	0.9585
44.9437	-0.78072	-8.8658	4.1108	1.0971	-3.3629	-10.3268	-24.5132	787.0423	-69.3306	302.0785	88.9002	882.2135	-0.0592	0.0182	-0.0073	-0.0462	0.0165	0.9585
44.9574	-0.42153	-4.4035	2.391	0.3666	-1.9897	-5.0331	-23.6286	764.2457	-69.299	293.7844	86.9465	855.3359	-0.0592	0.0182	-0.0073	-0.0462	0.0165	0.9585
44.9711	-0.13756	-0.97978	1.0936	-0.19019	-0.95364	-0.97195	-22.2581	743.0183	-68.9055	285.7299	84.59	829.6178	-0.0592	0.0182	-0.0073	-0.0462	0.0165	0.9585
44.9849	0.058303	1.4141	0.20319	-0.57604	-0.2454	1.8679	-20.529	725.101	-68.2644	278.6499	82.0368	807.0539	-0.0592	0.0182	-0.0073	-0.0462	0.0165	0.9585
44.9986	0.17325	2.9117	-0.33119	-0.81389	0.17343	3.6417	-18.5824	711.8672	-67.4993	273.1788	79.4728	789.2252	-0.0592	0.0182	-0.0073	-0.0462	0.0165	0.9585
45.0123	0.21326	3.6953	-0.59988	-0.9333	0.3721	4.562	-16.5126	704.2023	-66.7004	269.7688	77.0099	777.1388	-0.0592	0.0182	-0.0073	-0.0462	0.0165	0.9585
45.026	0.18609	3.9293	-0.6699	-0.95583	0.39887	4.8206	-14.3702	702.4036	-65.9202	268.6306	74.6901	771.1277	-0.0592	0.0182	-0.0073	-0.0462	0.0165	0.9585
45.0397	0.1076	3.7435	-0.61005	-0.89225	0.30691	4.5684	-12.1705	706.1585	-65.1692	269.716	72.4951	770.8456	-0.0592	0.0182	-0.0073	-0.0462	0.0165	0.9585
45.0534	-0.018494	3.209	-0.46433	-0.74018	0.12862	3.898	-9.8883	714.6219	-64.443	272.7415	70.3821	775.3674	-0.0592	0.0182	-0.0073	-0.0462	0.0165	0.9585
45.0671	-0.17893	2.3404	-0.27855	-0.48742	-0.097394	2.8283	-7.4847	726.5347	-63.7332	277.2324	68.3073	783.3377	-0.0592	0.0182	-0.0073	-0.0462	0.0165	0.9585
45.0809	-0.36327	1.1296	-0.079521	-0.12096	-0.34395	1.3542	-4.9332	740.3024	-63.0328	282.561	66.2362	793.0664	-0.0592	0.0182	-0.0073	-0.0462	0.0165	0.9585
45.0946	-0.53532	-0.42977	0.10705	0.36541	-0.57397	-0.53373	-2.218	754.1267	-62.3405	288.0046	64.1466	802.6913	-0.0592	0.0182	-0.0073	-0.0462	0.0165	0.9585
45.1083	-0.63386	-2.2924	0.24466	0.95816	-0.72837	-2.7846	0.67492	766.194	-61.6589	292.8218	62.0239	810.3866	-0.0592	0.0182	-0.0073	-0.0462	0.0165	0.9585
45.122	-0.58138	-4.3067	0.28878	1.6062	-0.72762	-5.2094	3.7535	774.8769	-61.0064	296.3417	59.8755	814.5587	-0.0592	0.0182	-0.0073	-0.0462	0.0165	0.9585
45.1357	-0.26226	-6.1388	0.1748	2.1957	-0.45877	-7.4133	6.9921	778.974	-60.407	298.0625	57.7311	814.0748	-0.0592	0.0182	-0.0073	-0.0462	0.0165	0.9585
45.1494	0.44163	-7.2052	-0.17086	2.5291	0.20438	-8.6975	10.3341	777.8891	-59.9084	297.7228	55.6595	808.428	-0.0592	0.0182	-0.0073	-0.0462	0.0165	0.9585
45.1631	1.6618	-6.6175	-0.83742	2.3031	1.4118	-8.0013	13.6843	771.7094	-59.5554	295.3397	53.744	797.8082	-0.0592	0.0182	-0.0073	-0.0462	0.0165	0.9585
45.1769	3.4996	-3.1399	-1.9019	1.0962	3.2951	-3.8595	16.922	761.1404	-59.3748	291.1886	52.06	783.0171	-0.0592	0.0182	-0.0073	-0.0462	0.0165	0.9585
45.1906	6.0006	4.7762	-3.4158	-1.6187	5.9312	5.5579	19.9396	747.312	-59.3395	285.728	50.6277	765.2498	-0.0592	0.0182	-0.0073	-0.0462	0.0165	0.9585
45.2043	9.0963	18.8357	-5.3641	-6.4205	9.2755	22.2772	22.6433	731.469	-59.3827	279.4702	49.4224	745.7948	-0.0592	0.0182	-0.0073	-0.0462	0.0165	0.9585
45.218	12.4892	40.6188	-7.611	-13.84	13.0618	48.187	24.9459	714.6034	-59.382	272.8326	48.3561	725.6639	-0.0592	0.0182	-0.0073	-0.0462	0.0165	0.9585
45.2317	15.5583	71.0495	-9.8294	-24.1776	16.6821	84.3924	26.7463	697.2014	-59.1785	266.0291	47.3097	705.3615	-0.0592	0.0182	-0.0073	-0.0462	0.0165	0.9585
45.2454	17.2535	109.629	-11.4242	-37.2437	19.0736	130.3226	27.9226	679.1864	-58.5932	259.0432	46.1547	684.8639	-0.0592	0.0182	-0.0073	-0.0462	0.0165	0.9585
45.2591	16.4083	153.7723	-11.6243	-52.129	18.9269	182.932	28.364	660.0409	-57.4817	251.6741	44.7955	663.7132	-0.0592	0.0182	-0.0073	-0.0462	0.0165	0.9585
45.2729	12.8278	198.7405	-9.471	-67.1814	15.0679	236.5657	27.9947	639.1049	-55.7638	243.6572	43.1923	641.2956	-0.0592	0.0182	-0.0073	-0.0462	0.0165	0.9585
45.2866	7.7573	239.6182	-4.7459	-80.7295	7.7315	285.2327	26.8557	615.9531	-53.4806	234.8138	41.3829	617.1719	-0.0592	0.0182	-0.0073	-0.0462	0.0165	0.9585
45.3003	2.3875	273.8284	1.5716	-91.9597	-1.5111	325.6425	25.1628	590.6234	-50.8189	225.1381	39.4727	591.2961	-0.0592	0.0182	-0.0073	-0.0462	0.0165	0.9585
45.314	-2.6343	301.8126	8.4663	-101.0862	-11.2199	358.2181	23.2958	563.4611	-48.0394	214.7497	37.5642	563.878	-0.0592	0.0182	-0.0073	-0.0462	0.0165	0.9585
45.3277	-7.0607	325.7107	14.8457	-108.9002	-20.0531	385.5005	21.6349	534.9428	-45.306	203.8283	35.6597	535.2509	-0.0592	0.0182	-0.0073	-0.0462	0.0165	0.9585
45.3414	-10.8628	347.8133	20.0528	-116.2202	-27.2343	410.2872	20.4633	505.4741	-42.622	192.535	33.6427	505.7109	-0.0592	0.0182	-0.0073	-0.0462	0.0165	0.9585
45.3551	-13.9702	369.6749	23.6697	-123.5944	-32.2864	434.4229	19.9237	475.2688	-39.8261	180.9635	31.2965	475.4101	-0.0592	0.0182	-0.0073	-0.0462	0.0165	0.9585
45.3689	-16.3086	391.9258	25.7339	-131.2208	-35.2437	458.6757	19.9798	444.2897	-36.7396	169.1103	28.4478	444.2979	-0.0592	0.0182	-0.0073	-0.0462	0.0165	0.9585
45.3826	-17.8097	414.6149	26.5916	-139.0704	-36.5073	483.1328	20.454	412.2871	-33.2895	156.8825	25.0768	412.1374	-0.0592	0.0182	-0.0073	-0.0462	0.0165	0.9585
45.3963	-18.4453	437.6494	26.8352	-147.0467	-36.764	507.7061	21.0541	378.8976	-29.5524	144.1309	21.3493	378.5948	-0.0592	0.0182	-0.0073	-0.0462	0.0165	0.9585
45.41	-18.3128	461.0273	27.1389	-155.08	-36.8202	532.4182	21.4256	343.7644	-25.7079	130.7087	17.5546	343.3467	-0.0592	0.0182	-0.0073	-0.0462	0.0165	0.9585
45.4237	-17.6238	485.0296	28.0347	-163.2209	-37.3539	557.5972	21.1958	306.7749	-21.9387	116.5678	14.0017	306.3174	-0.0592	0.0182	-0.0073	-0.0462	0.0165	0.9585
45.4374	-16.6693	510.4264	29.8763	-171.7019	-38.8521	584.1524	20.088	268.2716	-18.4003	101.8387	10.9499	267.8697	-0.0592	0.0182	-0.0073	-0.0462	0.0165	0.9585
45.4511	-15.6447	538.305	32.6553	-180.888	-41.3752	613.3082	18.0143	229.105	-15.1771	86.8538	8.5309	228.8356	-0.0592	0.0182	-0.0073	-0.0462	0.0165	0.9585
45.4649	-14.6676	569.5898	36.2295	-191.0972	-44.7914	646.1075	15.0677	190.5249	-12.3002	72.101	6.7553	190.4389	-0.0592	0.0182	-0.0073	-0.0462	0.0165	0.9585
45.4786	-13.8141	604.4663	40.2924	-202.4064	-48.7842	682.7553	11.5493	153.9351	-9.7536	58.1283	5.5119	154.0416	-0.0592	0.0182	-0.0073	-0.0462	0.0165	0.9585
45.4923	-13.1445	642.0977	44.6812	-214.5414	-53.1738	722.332	7.8589	120.5976	-7.5357	45.4238	4.6597	120.8699	-0.0592	0.0182	-0.0073	-0.0462	0.0165	0.9585
45.506	-12.698	680.8023	49.1964	-226.9413	-57.7447	762.9874	4.3654	91.3961	-5.6394	34.3262	4.0556	91.7862	-0.0592	0.0182	-0.0073	-0.0462	0.0165	0.9585
45.5197	-12.4535	718.3829	53.728	-238.8705	-62.3539	802.3158	1.3499	66.7294	-4.062	24.9853	3.5927	67.1763	-0.0592	0.0182	-0.0073	-0.0462	0.0165	0.9585
45.5334	-12.3579	752.553	58.0599	-249.5657	-66.7487	837.8137	-1.0296	46.5901	-2.7898	17.3883	3.1971	47.0452	-0.0592	0.0182	-0.0073	-0.0462	0.0165	0.9585
45.5471	-12.363	781.2849	62.0073	-258.3548	-70.7039	867.3013	-2.6749	30.6648	-1.7981	11.4056	2.8087	31.0904	-0.0592	0.0182	-0.0073	-0.0462	0.0165	0.9585
45.5609	-12.4051	803.0446	65.3358	-264.7424	-73.9491	889.1444	-3.5612	18.5058	-1.0554	6.8571	2.3846	18.8832	-0.0592	0.0182	-0.0073	-0.0462	0.0165	0.9585
45.5746	-12.4422	816.9253	67.9106	-268.445	-76.3252	902.4015	-3.7194	9.6401	-0.53518	3.5559	1.9106	9.9605	-0.0592	0.0182	-0.0073	-0.0462	0.0165	0.9585
45.5883	-12.4272	822.6928	69.6369	-269.4064	-77.7257	906.8334	-3.3154	3.6272	-0.20897	1.3278	1.4285	3.879	-0.0592	0.0182	-0.0073	-0.0462	0.0165	0.9585
45.602	-12.3112	820.7713	70.5204	-267.7905	-78.1518	902.8984	-2.665	-0.0079141	-0.029046	-0.012048	1.0063	0.18384	-0.0592	0.0182	-0.0073	-0.0462	0.0165	0.9585
45.6157	-12.0181	812.1949	70.6188	-263.9664	-77.6604	891.6973	-1.9649	-1.8615	0.035371	-0.68629	0.68363	-1.7187	-0.0592	0.0182	-0.0073	-0.0462	0.0165	0.9585
45.6294	-11.4583	798.5424	70.0697	-258.4811	-76.3885	874.9062	-1.3388	-2.481	0.033386	-0.90222	0.45326	-2.3684	-0.0592	0.0182	-0.0073	-0.0462	0.0165	0.9585
